<?xml version="1.0" standalone="no"?>
<!DOCTYPE svg PUBLIC "-//W3C//DTD SVG 20010904//EN"
 "http://www.w3.org/TR/2001/REC-SVG-20010904/DTD/svg10.dtd">
<svg version="1.0" xmlns="http://www.w3.org/2000/svg"
 width="3000.000000pt" height="3000.000000pt" viewBox="0 0 3000.000000 3000.000000"
 preserveAspectRatio="xMidYMid meet">

<g transform="translate(0.000000,3000.000000) scale(0.100000,-0.100000)"
fill="#000000" stroke="none">
<path d="M2775 27311 c-48 -22 -69 -44 -90 -94 -13 -32 -15 -342 -15 -2864 0
-2723 1 -2829 19 -2868 22 -48 44 -69 94 -90 32 -13 342 -15 2864 -15 2723 0
2829 1 2868 19 48 22 69 44 90 94 13 32 15 342 15 2862 0 2520 -2 2830 -15
2862 -21 50 -42 72 -90 94 -39 18 -145 19 -2870 19 -2725 0 -2831 -1 -2870
-19z m4961 -865 l34 -34 0 -2057 0 -2057 -34 -34 -34 -34 -2057 0 -2057 0 -34
34 -34 34 0 2057 0 2057 34 34 34 34 2057 0 2057 0 34 -34z"/>
<path d="M4480 25614 c-45 -20 -68 -41 -91 -86 -18 -36 -19 -78 -19 -1170 0
-1078 1 -1135 19 -1173 22 -48 44 -69 94 -90 32 -13 172 -15 1164 -15 1073 0
1130 1 1168 19 48 22 69 44 90 94 13 32 15 172 15 1162 0 990 -2 1130 -15
1162 -21 50 -42 72 -90 94 -38 18 -94 19 -1170 18 -984 0 -1134 -2 -1165 -15z"/>
<path d="M9575 27311 c-48 -22 -69 -44 -90 -94 -13 -32 -15 -172 -15 -1164 0
-1073 1 -1130 19 -1168 22 -48 44 -69 94 -90 31 -13 129 -15 737 -15 608 0
706 2 737 15 50 21 72 42 94 90 17 36 19 69 19 320 0 251 -2 284 -19 320 -22
48 -44 69 -94 90 -30 12 -87 15 -312 15 -225 0 -282 3 -312 15 -50 21 -72 42
-94 90 -17 38 -19 83 -19 745 0 662 -2 707 -19 745 -22 48 -44 69 -94 90 -30
12 -86 15 -314 15 -248 0 -282 -2 -318 -19z"/>
<path d="M12975 27311 c-48 -22 -69 -44 -90 -94 -12 -30 -15 -87 -15 -312 0
-225 3 -282 15 -312 21 -50 42 -72 90 -94 38 -17 83 -19 745 -19 662 0 707 -2
745 -19 48 -22 69 -44 90 -94 12 -30 15 -87 15 -314 0 -248 2 -282 19 -318 22
-48 44 -69 94 -90 30 -12 87 -15 314 -15 248 0 282 -2 318 -19 48 -22 69 -44
90 -94 12 -30 15 -86 15 -314 0 -248 -2 -282 -19 -318 -22 -48 -44 -69 -94
-90 -30 -12 -87 -15 -312 -15 -225 0 -282 3 -312 15 -50 21 -72 42 -94 90 -17
36 -19 70 -19 320 0 250 -2 284 -19 320 -22 48 -44 69 -94 90 -31 13 -129 15
-737 15 -608 0 -706 2 -737 15 -50 21 -72 42 -94 90 -17 36 -19 70 -19 318 0
227 -3 284 -15 314 -21 50 -42 72 -90 94 -36 17 -69 19 -320 19 -251 0 -284
-2 -320 -19 -48 -22 -69 -44 -90 -94 -13 -32 -15 -129 -15 -739 0 -661 2 -705
19 -743 22 -48 44 -69 94 -90 31 -13 130 -15 739 -15 661 0 705 -2 743 -19 48
-22 69 -44 90 -94 22 -54 22 -570 0 -624 -21 -50 -42 -72 -90 -94 -36 -17 -70
-19 -320 -19 -250 0 -284 -2 -320 -19 -48 -22 -69 -44 -90 -94 -13 -32 -15
-172 -15 -1164 0 -1073 1 -1130 19 -1168 22 -48 44 -69 94 -90 54 -22 570 -22
624 0 50 21 72 42 94 90 17 36 19 70 19 320 0 250 2 284 19 320 22 48 44 69
94 90 30 12 87 15 314 15 248 0 282 2 318 19 48 22 69 44 90 94 13 31 15 129
15 737 0 608 2 706 15 737 21 50 42 72 90 94 38 17 83 19 745 19 662 0 707 2
745 19 48 22 69 44 90 94 12 30 15 87 15 314 0 248 2 282 19 318 22 48 44 69
94 90 30 12 87 15 312 15 225 0 282 3 312 15 50 21 72 42 94 90 17 36 19 69
19 320 0 251 -2 284 -19 320 -22 48 -44 69 -94 90 -30 12 -87 15 -312 15 -225
0 -282 3 -312 15 -50 21 -72 42 -94 90 -17 38 -19 83 -19 745 0 662 -2 707
-19 745 -22 48 -44 69 -94 90 -32 13 -214 15 -1589 15 -1486 0 -1555 -1 -1593
-19z"/>
<path d="M18075 27311 c-48 -22 -69 -44 -90 -94 -12 -30 -15 -87 -15 -312 0
-225 3 -282 15 -312 21 -50 42 -72 90 -94 38 -17 82 -19 745 -19 663 0 707 2
745 19 48 22 69 44 90 94 22 54 22 570 0 624 -21 50 -42 72 -90 94 -38 17 -82
19 -745 19 -663 0 -707 -2 -745 -19z"/>
<path d="M21475 27311 c-48 -22 -69 -44 -90 -94 -13 -32 -15 -342 -15 -2864 0
-2723 1 -2829 19 -2868 22 -48 44 -69 94 -90 32 -13 342 -15 2864 -15 2723 0
2829 1 2868 19 48 22 69 44 90 94 13 32 15 342 15 2862 0 2520 -2 2830 -15
2862 -21 50 -42 72 -90 94 -39 18 -145 19 -2870 19 -2725 0 -2831 -1 -2870
-19z m4961 -865 l34 -34 0 -2057 0 -2057 -34 -34 -34 -34 -2057 0 -2057 0 -34
34 -34 34 0 2057 0 2057 34 34 34 34 2057 0 2057 0 34 -34z"/>
<path d="M23180 25614 c-45 -20 -68 -41 -91 -86 -18 -36 -19 -78 -19 -1170 0
-1078 1 -1135 19 -1173 22 -48 44 -69 94 -90 32 -13 172 -15 1164 -15 1073 0
1130 1 1168 19 48 22 69 44 90 94 13 32 15 172 15 1162 0 990 -2 1130 -15
1162 -21 50 -42 72 -90 94 -38 18 -94 19 -1170 18 -984 0 -1134 -2 -1165 -15z"/>
<path d="M17225 26461 c-48 -22 -69 -44 -90 -94 -12 -30 -15 -87 -15 -312 0
-225 3 -282 15 -312 21 -50 42 -72 90 -94 36 -17 70 -19 318 -19 228 0 284 3
314 15 50 21 72 42 94 90 17 36 19 69 19 320 0 251 -2 284 -19 320 -22 48 -44
69 -94 90 -30 12 -86 15 -314 15 -248 0 -282 -2 -318 -19z"/>
<path d="M18925 25611 c-48 -22 -69 -44 -90 -94 -12 -30 -15 -87 -15 -312 0
-225 3 -282 15 -312 21 -50 42 -72 90 -94 36 -17 70 -19 320 -19 250 0 284 -2
320 -19 48 -22 69 -44 90 -94 12 -30 15 -87 15 -314 0 -248 2 -282 19 -318 22
-48 44 -69 94 -90 30 -12 86 -15 314 -15 248 0 282 2 318 19 48 22 69 44 90
94 13 31 15 129 15 737 0 608 -2 706 -15 737 -21 50 -42 72 -90 94 -38 17 -82
19 -745 19 -663 0 -707 -2 -745 -19z"/>
<path d="M11275 24761 c-48 -22 -69 -44 -90 -94 -13 -32 -15 -129 -15 -739 0
-661 2 -705 19 -743 22 -48 44 -69 94 -90 30 -12 87 -15 312 -15 225 0 282 3
312 15 50 21 72 42 94 90 17 38 19 82 19 745 0 663 -2 707 -19 745 -22 48 -44
69 -94 90 -30 12 -86 15 -314 15 -248 0 -282 -2 -318 -19z"/>
<path d="M17225 24761 c-48 -22 -69 -44 -90 -94 -12 -30 -15 -87 -15 -312 0
-225 3 -282 15 -312 21 -50 42 -72 90 -94 36 -17 70 -19 320 -19 250 0 284 -2
320 -19 48 -22 69 -44 90 -94 13 -32 15 -257 15 -2012 0 -1755 2 -1980 15
-2012 21 -50 42 -72 90 -94 36 -17 69 -19 320 -19 251 0 284 2 320 19 48 22
69 44 90 94 12 30 15 87 15 312 0 225 3 282 15 312 21 50 42 72 90 94 38 17
82 19 743 19 609 0 708 2 739 15 50 21 72 42 94 90 18 38 19 95 19 1170 0
1075 -1 1132 -19 1170 -22 48 -44 69 -94 90 -30 12 -86 15 -314 15 -248 0
-282 -2 -318 -19 -48 -22 -69 -44 -90 -94 -13 -31 -15 -129 -15 -737 0 -608
-2 -706 -15 -737 -21 -50 -42 -72 -90 -94 -36 -17 -69 -19 -320 -19 -251 0
-284 2 -320 19 -48 22 -69 44 -90 94 -13 32 -15 214 -15 1587 0 1373 -2 1555
-15 1587 -21 50 -42 72 -90 94 -38 17 -82 19 -745 19 -663 0 -707 -2 -745 -19z"/>
<path d="M9575 23061 c-48 -22 -69 -44 -90 -94 -13 -32 -15 -257 -15 -2012 0
-1755 2 -1980 15 -2012 21 -50 42 -72 90 -94 36 -17 69 -19 320 -19 251 0 284
2 320 19 48 22 69 44 90 94 12 30 15 87 15 312 0 225 3 282 15 312 21 50 42
72 90 94 36 17 70 19 320 19 250 0 284 2 320 19 48 22 69 44 90 94 12 30 15
87 15 312 0 225 3 282 15 312 21 50 42 72 90 94 36 17 70 19 320 19 250 0 284
2 320 19 48 22 69 44 90 94 13 31 15 129 15 737 0 608 -2 706 -15 737 -21 50
-42 72 -90 94 -36 17 -69 19 -320 19 -251 0 -284 -2 -320 -19 -48 -22 -69 -44
-90 -94 -12 -30 -15 -87 -15 -314 0 -248 -2 -282 -19 -318 -22 -48 -44 -69
-94 -90 -54 -22 -570 -22 -624 0 -50 21 -72 42 -94 90 -17 36 -19 70 -19 318
0 228 3 284 15 314 21 50 42 72 90 94 36 17 70 19 320 19 250 0 284 2 320 19
48 22 69 44 90 94 22 54 22 570 0 624 -21 50 -42 72 -90 94 -38 17 -82 19
-745 19 -663 0 -707 -2 -745 -19z"/>
<path d="M15525 23061 c-48 -22 -69 -44 -90 -94 -12 -30 -15 -87 -15 -312 0
-225 3 -282 15 -312 21 -50 42 -72 90 -94 36 -17 70 -19 318 -19 228 0 284 3
314 15 50 21 72 42 94 90 17 36 19 69 19 320 0 251 -2 284 -19 320 -22 48 -44
69 -94 90 -30 12 -86 15 -314 15 -248 0 -282 -2 -318 -19z"/>
<path d="M14675 22211 c-48 -22 -69 -44 -90 -94 -13 -31 -15 -130 -15 -739 0
-661 -2 -705 -19 -743 -22 -48 -44 -69 -94 -90 -30 -12 -87 -15 -312 -15 -225
0 -282 -3 -312 -15 -50 -21 -72 -42 -94 -90 -17 -36 -19 -69 -19 -320 0 -251
2 -284 19 -320 22 -48 44 -69 94 -90 31 -13 129 -15 737 -15 608 0 706 2 737
15 50 21 72 42 94 90 17 36 19 70 19 320 0 250 2 284 19 320 22 48 44 69 94
90 30 12 86 15 314 15 248 0 282 -2 318 -19 48 -22 69 -44 90 -94 12 -30 15
-87 15 -314 0 -248 2 -282 19 -318 22 -48 44 -69 94 -90 30 -12 86 -15 314
-15 248 0 282 2 318 19 48 22 69 44 90 94 13 32 15 172 15 1162 0 990 -2 1130
-15 1162 -21 50 -42 72 -90 94 -36 17 -69 19 -320 19 -251 0 -284 -2 -320 -19
-48 -22 -69 -44 -90 -94 -12 -30 -15 -87 -15 -312 0 -225 -3 -282 -15 -312
-21 -50 -42 -72 -90 -94 -36 -17 -69 -19 -320 -19 -251 0 -284 2 -320 19 -48
22 -69 44 -90 94 -12 30 -15 87 -15 314 0 248 -2 282 -19 318 -22 48 -44 69
-94 90 -30 12 -86 15 -314 15 -248 0 -282 -2 -318 -19z"/>
<path d="M4475 20511 c-48 -22 -69 -44 -90 -94 -13 -32 -15 -129 -15 -739 0
-661 2 -705 19 -743 22 -48 44 -69 94 -90 54 -22 570 -22 624 0 50 21 72 42
94 90 17 36 19 70 19 318 0 227 3 284 15 314 21 50 42 72 90 94 36 17 69 19
320 19 251 0 284 -2 320 -19 48 -22 69 -44 90 -94 12 -30 15 -86 15 -314 0
-248 -2 -282 -19 -318 -22 -48 -44 -69 -94 -90 -30 -12 -87 -15 -312 -15 -225
0 -282 -3 -312 -15 -50 -21 -72 -42 -94 -90 -17 -38 -19 -82 -19 -743 0 -610
2 -707 15 -739 21 -50 42 -72 90 -94 38 -17 83 -19 745 -19 662 0 707 -2 745
-19 48 -22 69 -44 90 -94 12 -30 15 -87 15 -312 0 -225 3 -282 15 -312 21 -50
42 -72 90 -94 38 -17 83 -19 745 -19 662 0 707 -2 745 -19 48 -22 69 -44 90
-94 12 -30 15 -86 15 -314 0 -248 -2 -282 -19 -318 -22 -48 -44 -69 -94 -90
-31 -13 -129 -15 -737 -15 -608 0 -706 -2 -737 -15 -50 -21 -72 -42 -94 -90
-17 -36 -19 -70 -19 -320 0 -250 -2 -284 -19 -320 -22 -48 -44 -69 -94 -90
-30 -12 -87 -15 -312 -15 -225 0 -282 -3 -312 -15 -50 -21 -72 -42 -94 -90
-17 -38 -19 -82 -19 -743 0 -610 2 -707 15 -739 21 -50 42 -72 90 -94 36 -17
69 -19 320 -19 251 0 284 2 320 19 48 22 69 44 90 94 12 30 15 87 15 314 0
248 2 282 19 318 22 48 44 69 94 90 30 12 87 15 312 15 225 0 282 3 312 15 50
21 72 42 94 90 17 36 19 70 19 320 0 250 2 284 19 320 22 48 44 69 94 90 54
22 570 22 624 0 50 -21 72 -42 94 -90 17 -36 19 -69 19 -320 0 -251 -2 -284
-19 -320 -22 -48 -44 -69 -94 -90 -30 -12 -87 -15 -312 -15 -225 0 -282 -3
-312 -15 -50 -21 -72 -42 -94 -90 -17 -36 -19 -70 -19 -318 0 -228 3 -284 15
-314 21 -50 42 -72 90 -94 38 -17 82 -19 745 -19 663 0 707 2 745 19 48 22 69
44 90 94 13 31 15 130 15 739 0 661 2 705 19 743 22 48 44 69 94 90 30 12 87
15 314 15 248 0 282 2 318 19 48 22 69 44 90 94 13 31 15 129 15 737 0 608 -2
706 -15 737 -21 50 -42 72 -90 94 -36 17 -70 19 -320 19 -250 0 -284 2 -320
19 -48 22 -69 44 -90 94 -12 30 -15 87 -15 312 0 225 -3 282 -15 312 -21 50
-42 72 -90 94 -38 17 -83 19 -745 19 -662 0 -707 2 -745 19 -48 22 -69 44 -90
94 -12 30 -15 86 -15 314 0 248 2 282 19 318 22 48 44 69 94 90 30 12 87 15
312 15 225 0 282 3 312 15 50 21 72 42 94 90 17 36 19 69 19 320 0 251 -2 284
-19 320 -22 48 -44 69 -94 90 -30 12 -87 15 -312 15 -225 0 -282 3 -312 15
-50 21 -72 42 -94 90 -17 36 -19 70 -19 320 0 250 -2 284 -19 320 -22 48 -44
69 -94 90 -30 12 -87 15 -314 15 -248 0 -282 2 -318 19 -48 22 -69 44 -90 94
-12 30 -15 87 -15 312 0 225 -3 282 -15 312 -21 50 -42 72 -90 94 -38 18 -95
19 -1170 19 -1075 0 -1132 -1 -1170 -19z"/>
<path d="M7875 20511 c-48 -22 -69 -44 -90 -94 -22 -54 -22 -570 0 -624 21
-50 42 -72 90 -94 36 -17 70 -19 318 -19 228 0 284 3 314 15 50 21 72 42 94
90 17 36 19 69 19 320 0 251 -2 284 -19 320 -22 48 -44 69 -94 90 -30 12 -86
15 -314 15 -248 0 -282 -2 -318 -19z"/>
<path d="M12125 20511 c-48 -22 -69 -44 -90 -94 -12 -30 -15 -87 -15 -312 0
-225 3 -282 15 -312 21 -50 42 -72 90 -94 36 -17 70 -19 318 -19 228 0 284 3
314 15 50 21 72 42 94 90 17 36 19 69 19 320 0 251 -2 284 -19 320 -22 48 -44
69 -94 90 -30 12 -86 15 -314 15 -248 0 -282 -2 -318 -19z"/>
<path d="M20625 20511 c-48 -22 -69 -44 -90 -94 -12 -30 -15 -87 -15 -312 0
-225 -3 -282 -15 -312 -21 -50 -42 -72 -90 -94 -36 -17 -70 -19 -320 -19 -250
0 -284 -2 -320 -19 -48 -22 -69 -44 -90 -94 -22 -54 -22 -570 0 -624 21 -50
42 -72 90 -94 38 -18 95 -19 1170 -19 1075 0 1132 1 1170 19 48 22 69 44 90
94 12 30 15 87 15 312 0 225 3 282 15 312 21 50 42 72 90 94 36 17 70 19 320
19 250 0 284 2 320 19 48 22 69 44 90 94 22 54 22 570 0 624 -21 50 -42 72
-90 94 -38 18 -95 19 -1170 19 -1075 0 -1132 -1 -1170 -19z"/>
<path d="M24875 20511 c-48 -22 -69 -44 -90 -94 -12 -30 -15 -87 -15 -312 0
-225 3 -282 15 -312 21 -50 42 -72 90 -94 36 -17 70 -19 320 -19 250 0 284 -2
320 -19 48 -22 69 -44 90 -94 12 -30 15 -87 15 -314 0 -248 2 -282 19 -318 22
-48 44 -69 94 -90 32 -13 129 -15 739 -15 661 0 705 2 743 19 48 22 69 44 90
94 13 31 15 129 15 737 0 608 -2 706 -15 737 -21 50 -42 72 -90 94 -38 18 -95
19 -1170 19 -1075 0 -1132 -1 -1170 -19z"/>
<path d="M2775 19661 c-48 -22 -69 -44 -90 -94 -22 -54 -22 -570 0 -624 21
-50 42 -72 90 -94 36 -17 70 -19 318 -19 228 0 284 3 314 15 50 21 72 42 94
90 17 36 19 69 19 320 0 251 -2 284 -19 320 -22 48 -44 69 -94 90 -30 12 -86
15 -314 15 -248 0 -282 -2 -318 -19z"/>
<path d="M23175 19661 c-48 -22 -69 -44 -90 -94 -12 -30 -15 -87 -15 -312 0
-225 3 -282 15 -312 21 -50 42 -72 90 -94 36 -17 70 -19 318 -19 228 0 284 3
314 15 50 21 72 42 94 90 17 36 19 69 19 320 0 251 -2 284 -19 320 -22 48 -44
69 -94 90 -30 12 -86 15 -314 15 -248 0 -282 -2 -318 -19z"/>
<path d="M14838 19255 c-3 -4 -45 -10 -94 -15 -83 -9 -150 -21 -219 -40 -111
-30 -152 -43 -167 -51 -10 -5 -23 -9 -29 -9 -6 0 -27 -7 -47 -16 -88 -39 -101
-44 -111 -44 -6 0 -11 -4 -11 -8 0 -4 -22 -16 -50 -27 -27 -11 -50 -22 -50
-26 0 -4 -8 -9 -17 -13 -18 -5 -53 -26 -63 -36 -10 -10 -45 -31 -62 -36 -10
-4 -18 -10 -18 -14 0 -5 -8 -11 -18 -14 -10 -4 -27 -14 -38 -24 -10 -9 -32
-27 -48 -40 -54 -41 -149 -127 -180 -161 -17 -18 -47 -50 -66 -70 -20 -20 -51
-56 -70 -81 -19 -25 -43 -54 -52 -64 -10 -11 -20 -28 -24 -38 -3 -10 -10 -18
-15 -18 -5 0 -9 -7 -9 -15 0 -8 -4 -15 -9 -15 -5 0 -13 -10 -17 -22 -4 -13 -9
-25 -13 -28 -10 -8 -31 -44 -37 -62 -4 -10 -10 -18 -15 -18 -5 0 -9 -6 -9 -14
0 -17 -32 -80 -42 -84 -5 -2 -8 -10 -8 -18 0 -8 -4 -22 -10 -32 -14 -25 -36
-80 -55 -137 -9 -27 -21 -59 -25 -70 -9 -20 -11 -29 -31 -125 -6 -30 -15 -64
-19 -75 -31 -80 -34 -204 -40 -1274 l-5 -1084 -55 -30 c-30 -16 -56 -33 -58
-38 -2 -5 -8 -9 -13 -9 -12 0 -69 -58 -69 -70 0 -6 -3 -10 -7 -10 -11 0 -42
-56 -69 -124 -24 -59 -24 -64 -24 -441 0 -411 1 -416 53 -461 13 -12 34 -25
48 -30 13 -4 197 -11 408 -14 342 -4 383 -7 370 -20 -8 -8 -52 -58 -99 -110
-47 -52 -101 -110 -120 -130 -117 -121 -164 -205 -189 -336 -17 -92 -15 -2576
2 -2626 25 -71 99 -128 166 -128 56 0 120 39 157 95 18 29 19 66 24 1330 5
1255 6 1302 24 1330 10 16 33 44 50 64 42 46 132 144 181 196 141 150 258 275
283 303 l29 32 849 0 850 0 31 -38 c17 -21 65 -72 105 -114 41 -42 101 -106
133 -143 33 -37 97 -106 143 -152 45 -47 97 -106 115 -131 l32 -47 3 -1295 c1
-836 6 -1298 12 -1304 6 -6 10 -16 10 -24 0 -19 48 -64 90 -85 59 -30 129 -16
188 37 55 49 52 -29 52 1396 0 735 -4 1328 -9 1338 -5 9 -17 43 -26 75 -10 31
-22 57 -26 57 -4 0 -10 11 -13 25 -4 14 -11 25 -16 25 -6 0 -10 5 -10 10 0 11
-42 60 -112 132 -21 21 -38 40 -38 41 0 2 -40 46 -90 98 l-90 94 398 5 c448 6
444 5 497 85 19 29 20 48 20 426 0 280 -3 400 -11 410 -7 8 -15 29 -19 47 -3
17 -10 32 -15 32 -4 0 -10 8 -14 18 -17 52 -116 148 -191 187 l-55 27 0 1077
c-1 894 -3 1090 -15 1156 -8 44 -15 94 -15 112 0 17 -4 35 -10 38 -5 3 -10 18
-10 33 0 27 -10 64 -51 177 -12 33 -23 72 -26 88 -3 15 -9 27 -13 27 -5 0 -11
13 -15 30 -4 16 -11 32 -16 35 -5 4 -9 15 -9 25 0 10 -3 20 -7 22 -5 2 -18 23
-30 48 -37 74 -132 229 -153 250 -3 3 -17 21 -32 41 -55 73 -191 217 -278 294
-59 52 -212 160 -270 191 -30 16 -60 35 -68 42 -7 6 -20 12 -28 12 -8 0 -14 5
-14 10 0 6 -8 10 -18 10 -10 0 -22 4 -27 9 -15 14 -215 91 -235 91 -11 0 -21
4 -24 9 -4 5 -25 12 -49 16 -23 4 -46 11 -52 15 -5 4 -26 10 -45 13 -19 3 -69
10 -110 16 -41 6 -103 16 -136 21 -65 11 -327 14 -336 5z m387 -375 c66 -10
127 -22 195 -40 48 -13 64 -18 123 -44 21 -9 47 -16 57 -16 11 0 20 -3 20 -7
0 -5 21 -17 48 -27 26 -11 49 -22 52 -25 3 -3 23 -15 45 -26 42 -20 116 -66
125 -76 3 -3 32 -25 65 -49 62 -46 285 -265 285 -280 0 -5 6 -15 13 -22 22
-22 97 -135 97 -146 0 -6 3 -12 8 -14 4 -1 26 -41 48 -88 59 -121 74 -156 74
-173 0 -9 4 -18 9 -21 5 -3 11 -18 14 -33 3 -16 13 -57 22 -93 40 -159 40
-157 40 -1255 l0 -1070 -1575 0 -1575 0 0 1045 c0 575 4 1070 8 1100 17 113
46 227 85 335 26 73 100 236 111 245 3 3 15 22 26 43 11 20 23 37 27 37 5 0 8
5 8 11 0 9 44 73 60 89 3 3 21 25 40 50 41 53 137 148 200 199 25 20 47 38 50
41 13 13 79 60 85 60 3 0 21 10 38 23 49 34 70 47 90 53 9 4 17 10 17 15 0 5
6 9 12 9 7 0 35 11 63 24 246 120 600 170 890 126z m1575 -3879 c0 -5 10 -11
23 -15 14 -3 29 -20 40 -44 14 -33 17 -73 17 -250 l0 -212 -1880 0 -1880 0 0
237 c0 206 2 239 17 255 9 10 22 18 30 18 7 0 13 5 13 10 0 7 610 10 1810 10
1053 0 1810 -4 1810 -9z"/>
<path d="M3625 18811 c-48 -22 -69 -44 -90 -94 -22 -54 -22 -570 0 -624 21
-50 42 -72 90 -94 36 -17 70 -19 318 -19 228 0 284 3 314 15 50 21 72 42 94
90 17 36 19 69 19 320 0 251 -2 284 -19 320 -22 48 -44 69 -94 90 -30 12 -86
15 -314 15 -248 0 -282 -2 -318 -19z"/>
<path d="M24875 18811 c-48 -22 -69 -44 -90 -94 -12 -30 -15 -87 -15 -312 0
-225 -3 -282 -15 -312 -21 -50 -42 -72 -90 -94 -38 -18 -107 -19 -1593 -19
-1374 0 -1557 -2 -1589 -15 -50 -21 -72 -42 -94 -90 -17 -36 -19 -69 -19 -320
0 -251 2 -284 19 -320 22 -48 44 -69 94 -90 31 -13 130 -15 739 -15 661 0 705
-2 743 -19 48 -22 69 -44 90 -94 13 -31 15 -129 15 -737 0 -608 2 -706 15
-737 21 -50 42 -72 90 -94 38 -17 82 -19 745 -19 663 0 707 2 745 19 48 22 69
44 90 94 22 54 22 570 0 624 -21 50 -42 72 -90 94 -36 17 -70 19 -318 19 -227
0 -284 3 -314 15 -50 21 -72 42 -94 90 -17 36 -19 69 -19 320 0 251 2 284 19
320 22 48 44 69 94 90 54 22 570 22 624 0 50 -21 72 -42 94 -90 17 -36 19 -70
19 -320 0 -250 2 -284 19 -320 22 -48 44 -69 94 -90 31 -13 129 -15 737 -15
608 0 706 2 737 15 50 21 72 42 94 90 17 36 19 69 19 320 0 251 -2 284 -19
320 -22 48 -44 69 -94 90 -30 12 -87 15 -312 15 -225 0 -282 3 -312 15 -50 21
-72 42 -94 90 -17 38 -19 83 -19 745 0 662 -2 707 -19 745 -22 48 -44 69 -94
90 -30 12 -86 15 -314 15 -248 0 -282 -2 -318 -19z"/>
<path d="M9575 17961 c-48 -22 -69 -44 -90 -94 -22 -54 -22 -570 0 -624 21
-50 42 -72 90 -94 36 -17 70 -19 318 -19 228 0 284 3 314 15 50 21 72 42 94
90 17 36 19 69 19 320 0 251 -2 284 -19 320 -22 48 -44 69 -94 90 -30 12 -86
15 -314 15 -248 0 -282 -2 -318 -19z"/>
<path d="M19775 17961 c-48 -22 -69 -44 -90 -94 -13 -32 -15 -172 -15 -1164 0
-1073 1 -1130 19 -1168 22 -48 44 -69 94 -90 54 -22 570 -22 624 0 50 21 72
42 94 90 17 36 19 70 19 320 0 250 2 284 19 320 22 48 44 69 94 90 30 12 87
15 314 15 248 0 282 2 318 19 48 22 69 44 90 94 22 54 22 570 0 624 -21 50
-42 72 -90 94 -36 17 -70 19 -320 19 -250 0 -284 2 -320 19 -48 22 -69 44 -90
94 -12 30 -15 87 -15 314 0 248 -2 282 -19 318 -22 48 -44 69 -94 90 -30 12
-86 15 -314 15 -248 0 -282 -2 -318 -19z"/>
<path d="M2775 17111 c-48 -22 -69 -44 -90 -94 -13 -32 -15 -214 -15 -1587 0
-1373 2 -1555 15 -1587 21 -50 42 -72 90 -94 36 -17 69 -19 320 -19 251 0 284
2 320 19 48 22 69 44 90 94 12 30 15 87 15 312 0 225 3 282 15 312 21 50 42
72 90 94 36 17 70 19 318 19 227 0 284 3 314 15 50 21 72 42 94 90 17 36 19
69 19 320 0 251 -2 284 -19 320 -22 48 -44 69 -94 90 -30 12 -87 15 -312 15
-225 0 -282 3 -312 15 -50 21 -72 42 -94 90 -17 36 -19 70 -19 318 0 228 3
284 15 314 21 50 42 72 90 94 38 17 83 19 745 19 662 0 707 2 745 19 48 22 69
44 90 94 22 54 22 570 0 624 -21 50 -42 72 -90 94 -38 18 -95 19 -1170 19
-1075 0 -1132 -1 -1170 -19z"/>
<path d="M6175 16261 c-48 -22 -69 -44 -90 -94 -22 -54 -22 -570 0 -624 21
-50 42 -72 90 -94 36 -17 70 -19 318 -19 228 0 284 3 314 15 50 21 72 42 94
90 17 36 19 69 19 320 0 251 -2 284 -19 320 -22 48 -44 69 -94 90 -30 12 -86
15 -314 15 -248 0 -282 -2 -318 -19z"/>
<path d="M21475 16261 c-48 -22 -69 -44 -90 -94 -12 -30 -15 -87 -15 -312 0
-225 3 -282 15 -312 21 -50 42 -72 90 -94 36 -17 70 -19 318 -19 228 0 284 3
314 15 50 21 72 42 94 90 17 36 19 69 19 320 0 251 -2 284 -19 320 -22 48 -44
69 -94 90 -30 12 -86 15 -314 15 -248 0 -282 -2 -318 -19z"/>
<path d="M26575 16261 c-48 -22 -69 -44 -90 -94 -13 -31 -15 -130 -15 -739 0
-661 -2 -705 -19 -743 -22 -48 -44 -69 -94 -90 -30 -12 -86 -15 -314 -15 -248
0 -282 2 -318 19 -48 22 -69 44 -90 94 -12 30 -15 87 -15 312 0 225 -3 282
-15 312 -21 50 -42 72 -90 94 -36 17 -69 19 -320 19 -251 0 -284 -2 -320 -19
-48 -22 -69 -44 -90 -94 -13 -32 -15 -129 -15 -739 0 -661 2 -705 19 -743 22
-48 44 -69 94 -90 32 -13 172 -15 1162 -15 990 0 1130 2 1162 15 50 21 72 42
94 90 18 38 19 95 19 1170 0 1075 -1 1132 -19 1170 -22 48 -44 69 -94 90 -30
12 -86 15 -314 15 -248 0 -282 -2 -318 -19z"/>
<path d="M5325 15411 c-48 -22 -69 -44 -90 -94 -22 -54 -22 -570 0 -624 21
-50 42 -72 90 -94 36 -17 70 -19 318 -19 228 0 284 3 314 15 50 21 72 42 94
90 17 36 19 69 19 320 0 251 -2 284 -19 320 -22 48 -44 69 -94 90 -30 12 -86
15 -314 15 -248 0 -282 -2 -318 -19z"/>
<path d="M22325 15411 c-48 -22 -69 -44 -90 -94 -12 -30 -15 -87 -15 -312 0
-225 -3 -282 -15 -312 -21 -50 -42 -72 -90 -94 -38 -17 -83 -19 -745 -19 -662
0 -707 -2 -745 -19 -48 -22 -69 -44 -90 -94 -13 -32 -15 -129 -15 -739 0 -661
2 -705 19 -743 22 -48 44 -69 94 -90 54 -22 570 -22 624 0 50 21 72 42 94 90
17 36 19 70 19 320 0 250 2 284 19 320 22 48 44 69 94 90 54 22 570 22 624 0
50 -21 72 -42 94 -90 17 -36 19 -69 19 -320 0 -251 -2 -284 -19 -320 -22 -48
-44 -69 -94 -90 -30 -12 -87 -15 -314 -15 -248 0 -282 -2 -318 -19 -48 -22
-69 -44 -90 -94 -22 -54 -22 -570 0 -624 21 -50 42 -72 90 -94 38 -17 82 -19
745 -19 663 0 707 2 745 19 48 22 69 44 90 94 13 31 15 130 15 739 0 661 2
705 19 743 22 48 44 69 94 90 30 12 87 15 314 15 248 0 282 2 318 19 48 22 69
44 90 94 22 54 22 570 0 624 -21 50 -42 72 -90 94 -36 17 -70 19 -320 19 -250
0 -284 2 -320 19 -48 22 -69 44 -90 94 -12 30 -15 87 -15 314 0 248 -2 282
-19 318 -22 48 -44 69 -94 90 -30 12 -86 15 -314 15 -248 0 -282 -2 -318 -19z"/>
<path d="M4475 14561 c-48 -22 -69 -44 -90 -94 -22 -54 -22 -570 0 -624 21
-50 42 -72 90 -94 36 -17 70 -19 318 -19 228 0 284 3 314 15 50 21 72 42 94
90 17 36 19 69 19 320 0 251 -2 284 -19 320 -22 48 -44 69 -94 90 -30 12 -86
15 -314 15 -248 0 -282 -2 -318 -19z"/>
<path d="M3625 13711 c-48 -22 -69 -44 -90 -94 -22 -54 -22 -570 0 -624 21
-50 42 -72 90 -94 36 -17 70 -19 318 -19 228 0 284 3 314 15 50 21 72 42 94
90 17 36 19 69 19 320 0 251 -2 284 -19 320 -22 48 -44 69 -94 90 -30 12 -86
15 -314 15 -248 0 -282 -2 -318 -19z"/>
<path d="M2775 12861 c-48 -22 -69 -44 -90 -94 -13 -32 -15 -214 -15 -1587 0
-1373 2 -1555 15 -1587 21 -50 42 -72 90 -94 36 -17 69 -19 320 -19 251 0 284
2 320 19 48 22 69 44 90 94 13 32 15 214 15 1589 0 1486 -1 1555 -19 1593 -22
48 -44 69 -94 90 -30 12 -86 15 -314 15 -248 0 -282 -2 -318 -19z"/>
<path d="M7025 12861 c-48 -22 -69 -44 -90 -94 -22 -54 -22 -570 0 -624 21
-50 42 -72 90 -94 36 -17 70 -19 318 -19 228 0 284 3 314 15 50 21 72 42 94
90 17 36 19 69 19 320 0 251 -2 284 -19 320 -22 48 -44 69 -94 90 -30 12 -86
15 -314 15 -248 0 -282 -2 -318 -19z"/>
<path d="M19775 12861 c-48 -22 -69 -44 -90 -94 -13 -32 -15 -214 -15 -1587 0
-1373 -2 -1555 -15 -1587 -21 -50 -42 -72 -90 -94 -36 -17 -69 -19 -320 -19
-251 0 -284 2 -320 19 -48 22 -69 44 -90 94 -12 30 -15 87 -15 312 0 225 -3
282 -15 312 -21 50 -42 72 -90 94 -36 17 -69 19 -320 19 -251 0 -284 -2 -320
-19 -48 -22 -69 -44 -90 -94 -12 -30 -15 -87 -15 -312 0 -225 -3 -282 -15
-312 -21 -50 -42 -72 -90 -94 -38 -17 -82 -19 -745 -19 -663 0 -707 2 -745 19
-48 22 -69 44 -90 94 -12 30 -15 87 -15 314 0 248 -2 282 -19 318 -22 48 -44
69 -94 90 -30 12 -86 15 -314 15 -248 0 -282 -2 -318 -19 -48 -22 -69 -44 -90
-94 -12 -30 -15 -87 -15 -312 0 -225 -3 -282 -15 -312 -21 -50 -42 -72 -90
-94 -36 -17 -69 -19 -320 -19 -251 0 -284 2 -320 19 -48 22 -69 44 -90 94 -12
30 -15 87 -15 312 0 225 -3 282 -15 312 -21 50 -42 72 -90 94 -38 18 -95 19
-1168 19 -992 0 -1132 -2 -1164 -15 -50 -21 -72 -42 -94 -90 -17 -36 -19 -69
-19 -320 0 -251 2 -284 19 -320 22 -48 44 -69 94 -90 30 -12 87 -15 314 -15
248 0 282 -2 318 -19 48 -22 69 -44 90 -94 12 -30 15 -87 15 -312 0 -225 3
-282 15 -312 21 -50 42 -72 90 -94 36 -17 70 -19 320 -19 250 0 284 -2 320
-19 48 -22 69 -44 90 -94 12 -30 15 -87 15 -312 0 -225 3 -282 15 -312 21 -50
42 -72 90 -94 36 -17 69 -19 320 -19 251 0 284 2 320 19 48 22 69 44 90 94 12
30 15 87 15 312 0 225 3 282 15 312 21 50 42 72 90 94 38 18 107 19 1595 19
1488 0 1557 -1 1595 -19 48 -22 69 -44 90 -94 12 -30 15 -87 15 -312 0 -225 3
-282 15 -312 21 -50 42 -72 90 -94 36 -17 70 -19 318 -19 227 0 284 -3 314
-15 50 -21 72 -42 94 -90 17 -38 19 -83 19 -745 0 -662 2 -707 19 -745 22 -48
44 -69 94 -90 30 -12 87 -15 312 -15 225 0 282 -3 312 -15 50 -21 72 -42 94
-90 17 -36 19 -70 19 -318 0 -227 3 -284 15 -314 21 -50 42 -72 90 -94 36 -17
70 -19 320 -19 250 0 284 -2 320 -19 48 -22 69 -44 90 -94 12 -30 15 -87 15
-312 0 -225 3 -282 15 -312 21 -50 42 -72 90 -94 38 -17 83 -19 745 -19 662 0
707 -2 745 -19 48 -22 69 -44 90 -94 22 -54 22 -570 0 -624 -21 -50 -42 -72
-90 -94 -38 -17 -83 -19 -745 -19 -662 0 -707 -2 -745 -19 -48 -22 -69 -44
-90 -94 -22 -54 -22 -570 0 -624 21 -50 42 -72 90 -94 38 -18 120 -19 2020
-19 1900 0 1982 1 2020 19 48 22 69 44 90 94 13 31 15 129 15 737 0 608 -2
706 -15 737 -21 50 -42 72 -90 94 -36 17 -69 19 -320 19 -251 0 -284 -2 -320
-19 -48 -22 -69 -44 -90 -94 -12 -30 -15 -87 -15 -312 0 -225 -3 -282 -15
-312 -21 -50 -42 -72 -90 -94 -36 -17 -69 -19 -320 -19 -251 0 -284 2 -320 19
-48 22 -69 44 -90 94 -22 54 -22 570 0 624 21 50 42 72 90 94 36 17 70 19 320
19 250 0 284 2 320 19 48 22 69 44 90 94 12 30 15 87 15 312 0 225 3 282 15
312 21 50 42 72 90 94 36 17 70 19 320 19 250 0 284 2 320 19 48 22 69 44 90
94 12 30 15 86 15 314 0 248 -2 282 -19 318 -22 48 -44 69 -94 90 -30 12 -87
15 -312 15 -225 0 -282 3 -312 15 -50 21 -72 42 -94 90 -17 36 -19 69 -19 320
0 251 2 284 19 320 22 48 44 69 94 90 30 12 87 15 312 15 225 0 282 3 312 15
50 21 72 42 94 90 17 36 19 70 19 320 0 250 2 284 19 320 22 48 44 69 94 90
54 22 570 22 624 0 50 -21 72 -42 94 -90 17 -36 19 -70 19 -320 0 -250 2 -284
19 -320 22 -48 44 -69 94 -90 31 -13 129 -15 737 -15 608 0 706 2 737 15 50
21 72 42 94 90 17 36 19 69 19 320 0 251 -2 284 -19 320 -22 48 -44 69 -94 90
-30 12 -87 15 -314 15 -248 0 -282 2 -318 19 -48 22 -69 44 -90 94 -12 30 -15
87 -15 312 0 225 -3 282 -15 312 -21 50 -42 72 -90 94 -38 17 -83 19 -745 19
-662 0 -707 2 -745 19 -48 22 -69 44 -90 94 -12 30 -15 87 -15 312 0 225 -3
282 -15 312 -21 50 -42 72 -90 94 -36 17 -70 19 -320 19 -250 0 -284 2 -320
19 -48 22 -69 44 -90 94 -22 54 -22 570 0 624 21 50 42 72 90 94 36 17 70 19
318 19 227 0 284 3 314 15 50 21 72 42 94 90 17 36 19 69 19 320 0 251 -2 284
-19 320 -22 48 -44 69 -94 90 -31 13 -129 15 -737 15 -608 0 -706 -2 -737 -15
-50 -21 -72 -42 -94 -90 -17 -36 -19 -70 -19 -320 0 -250 -2 -284 -19 -320
-22 -48 -44 -69 -94 -90 -30 -12 -86 -15 -314 -15 -248 0 -282 2 -318 19 -48
22 -69 44 -90 94 -12 30 -15 87 -15 312 0 225 -3 282 -15 312 -21 50 -42 72
-90 94 -36 17 -69 19 -320 19 -251 0 -284 -2 -320 -19 -48 -22 -69 -44 -90
-94 -12 -30 -15 -87 -15 -314 0 -248 -2 -282 -19 -318 -22 -48 -44 -69 -94
-90 -54 -22 -570 -22 -624 0 -50 21 -72 42 -94 90 -17 36 -19 69 -19 320 0
251 2 284 19 320 22 48 44 69 94 90 30 12 87 15 314 15 248 0 282 2 318 19 48
22 69 44 90 94 22 54 22 570 0 624 -21 50 -42 72 -90 94 -36 17 -70 19 -320
19 -250 0 -284 2 -320 19 -48 22 -69 44 -90 94 -12 30 -15 87 -15 314 0 248
-2 282 -19 318 -22 48 -44 69 -94 90 -30 12 -86 15 -314 15 -248 0 -282 -2
-318 -19z m3190 -3400 c48 -22 69 -44 90 -94 13 -32 15 -172 15 -1162 0 -990
-2 -1130 -15 -1162 -21 -50 -42 -72 -90 -94 -38 -18 -95 -19 -1168 -19 -992 0
-1132 2 -1164 15 -50 21 -72 42 -94 90 -18 38 -19 95 -19 1168 0 992 2 1132
15 1164 21 50 42 72 90 94 38 18 95 19 1170 19 1075 0 1132 -1 1170 -19z m-8
-3396 c50 -21 72 -42 94 -90 17 -36 19 -69 19 -320 0 -251 -2 -284 -19 -320
-22 -48 -44 -69 -94 -90 -30 -12 -86 -15 -314 -15 -248 0 -282 2 -318 19 -48
22 -69 44 -90 94 -12 30 -15 87 -15 312 0 225 3 282 15 312 21 50 42 72 90 94
36 17 70 19 318 19 228 0 284 -3 314 -15z"/>
<path d="M21475 8611 c-48 -22 -69 -44 -90 -94 -12 -30 -15 -87 -15 -312 0
-225 3 -282 15 -312 21 -50 42 -72 90 -94 36 -17 70 -19 318 -19 228 0 284 3
314 15 50 21 72 42 94 90 17 36 19 69 19 320 0 251 -2 284 -19 320 -22 48 -44
69 -94 90 -30 12 -86 15 -314 15 -248 0 -282 -2 -318 -19z"/>
<path d="M24025 12861 c-48 -22 -69 -44 -90 -94 -12 -30 -15 -87 -15 -312 0
-225 3 -282 15 -312 21 -50 42 -72 90 -94 36 -17 70 -19 318 -19 228 0 284 3
314 15 50 21 72 42 94 90 17 36 19 69 19 320 0 251 -2 284 -19 320 -22 48 -44
69 -94 90 -30 12 -86 15 -314 15 -248 0 -282 -2 -318 -19z"/>
<path d="M25725 12861 c-48 -22 -69 -44 -90 -94 -12 -30 -15 -87 -15 -312 0
-225 3 -282 15 -312 21 -50 42 -72 90 -94 36 -17 70 -19 318 -19 228 0 284 3
314 15 50 21 72 42 94 90 17 36 19 69 19 320 0 251 -2 284 -19 320 -22 48 -44
69 -94 90 -30 12 -86 15 -314 15 -248 0 -282 -2 -318 -19z"/>
<path d="M4475 12011 c-48 -22 -69 -44 -90 -94 -13 -32 -15 -129 -15 -739 0
-661 2 -705 19 -743 22 -48 44 -69 94 -90 30 -12 87 -15 312 -15 225 0 282 -3
312 -15 50 -21 72 -42 94 -90 17 -36 19 -70 19 -320 0 -250 2 -284 19 -320 22
-48 44 -69 94 -90 54 -22 570 -22 624 0 50 21 72 42 94 90 17 38 19 82 19 743
0 609 2 708 15 739 21 50 42 72 90 94 36 17 70 19 320 19 250 0 284 2 320 19
48 22 69 44 90 94 22 54 22 570 0 624 -21 50 -42 72 -90 94 -38 18 -95 19
-1170 19 -1075 0 -1132 -1 -1170 -19z"/>
<path d="M7875 12011 c-48 -22 -69 -44 -90 -94 -22 -54 -22 -570 0 -624 21
-50 42 -72 90 -94 36 -17 70 -19 318 -19 228 0 284 3 314 15 50 21 72 42 94
90 17 36 19 69 19 320 0 251 -2 284 -19 320 -22 48 -44 69 -94 90 -30 12 -86
15 -314 15 -248 0 -282 -2 -318 -19z"/>
<path d="M9575 12011 c-48 -22 -69 -44 -90 -94 -13 -32 -15 -129 -15 -739 0
-661 2 -705 19 -743 22 -48 44 -69 94 -90 54 -22 570 -22 624 0 50 21 72 42
94 90 17 38 19 82 19 745 0 663 -2 707 -19 745 -22 48 -44 69 -94 90 -30 12
-86 15 -314 15 -248 0 -282 -2 -318 -19z"/>
<path d="M24875 12011 c-48 -22 -69 -44 -90 -94 -12 -30 -15 -87 -15 -312 0
-225 3 -282 15 -312 21 -50 42 -72 90 -94 36 -17 70 -19 318 -19 228 0 284 3
314 15 50 21 72 42 94 90 17 36 19 69 19 320 0 251 -2 284 -19 320 -22 48 -44
69 -94 90 -30 12 -86 15 -314 15 -248 0 -282 -2 -318 -19z"/>
<path d="M7025 11161 c-48 -22 -69 -44 -90 -94 -22 -54 -22 -570 0 -624 21
-50 42 -72 90 -94 36 -17 70 -19 318 -19 228 0 284 3 314 15 50 21 72 42 94
90 17 36 19 69 19 320 0 251 -2 284 -19 320 -22 48 -44 69 -94 90 -30 12 -86
15 -314 15 -248 0 -282 -2 -318 -19z"/>
<path d="M25725 11161 c-48 -22 -69 -44 -90 -94 -13 -32 -15 -129 -15 -739 0
-661 2 -705 19 -743 22 -48 44 -69 94 -90 30 -12 87 -15 312 -15 225 0 282 -3
312 -15 50 -21 72 -42 94 -90 17 -36 19 -70 19 -320 0 -250 2 -284 19 -320 22
-48 44 -69 94 -90 54 -22 570 -22 624 0 50 21 72 42 94 90 18 38 19 95 19
1168 0 992 -2 1132 -15 1164 -21 50 -42 72 -90 94 -38 17 -82 19 -745 19 -663
0 -707 -2 -745 -19z"/>
<path d="M7875 10311 c-48 -22 -69 -44 -90 -94 -22 -54 -22 -570 0 -624 21
-50 42 -72 90 -94 38 -17 82 -19 745 -19 663 0 707 2 745 19 48 22 69 44 90
94 22 54 22 570 0 624 -21 50 -42 72 -90 94 -38 17 -82 19 -745 19 -663 0
-707 -2 -745 -19z"/>
<path d="M9575 9461 c-48 -22 -69 -44 -90 -94 -22 -54 -22 -570 0 -624 21 -50
42 -72 90 -94 36 -17 70 -19 320 -19 250 0 284 -2 320 -19 48 -22 69 -44 90
-94 12 -30 15 -87 15 -314 0 -248 2 -282 19 -318 22 -48 44 -69 94 -90 30 -12
87 -15 314 -15 248 0 282 -2 318 -19 48 -22 69 -44 90 -94 12 -30 15 -86 15
-314 0 -248 -2 -282 -19 -318 -22 -48 -44 -69 -94 -90 -31 -13 -130 -15 -739
-15 -661 0 -705 -2 -743 -19 -48 -22 -69 -44 -90 -94 -13 -32 -15 -172 -15
-1162 0 -990 2 -1130 15 -1162 21 -50 42 -72 90 -94 36 -17 70 -19 318 -19
227 0 284 -3 314 -15 50 -21 72 -42 94 -90 17 -36 19 -70 19 -320 0 -250 2
-284 19 -320 22 -48 44 -69 94 -90 54 -22 570 -22 624 0 50 21 72 42 94 90 18
38 19 95 19 1168 0 992 2 1132 15 1164 21 50 42 72 90 94 38 18 95 19 1170 19
1075 0 1132 -1 1170 -19 48 -22 69 -44 90 -94 13 -31 15 -130 15 -739 0 -661
2 -705 19 -743 22 -48 44 -69 94 -90 30 -12 87 -15 312 -15 225 0 282 -3 312
-15 50 -21 72 -42 94 -90 17 -38 19 -83 19 -745 0 -662 2 -707 19 -745 22 -48
44 -69 94 -90 32 -13 129 -15 739 -15 661 0 705 2 743 19 48 22 69 44 90 94
12 30 15 87 15 314 0 248 2 282 19 318 22 48 44 69 94 90 30 12 87 15 312 15
225 0 282 -3 312 -15 50 -21 72 -42 94 -90 17 -36 19 -70 19 -320 0 -250 2
-284 19 -320 22 -48 44 -69 94 -90 32 -13 172 -15 1162 -15 990 0 1130 2 1162
15 50 21 72 42 94 90 17 36 19 70 19 320 0 250 2 284 19 320 22 48 44 69 94
90 30 12 87 15 312 15 225 0 282 3 312 15 50 21 72 42 94 90 17 36 19 69 19
320 0 251 -2 284 -19 320 -22 48 -44 69 -94 90 -31 13 -129 15 -737 15 -608 0
-706 2 -737 15 -50 21 -72 42 -94 90 -17 36 -19 70 -19 320 0 250 -2 284 -19
320 -22 48 -44 69 -94 90 -30 12 -87 15 -312 15 -225 0 -282 3 -312 15 -50 21
-72 42 -94 90 -17 38 -19 83 -19 745 0 662 -2 707 -19 745 -22 48 -44 69 -94
90 -32 13 -172 15 -1164 15 -1073 0 -1130 1 -1168 19 -48 22 -69 44 -90 94
-12 30 -15 87 -15 312 0 225 -3 282 -15 312 -21 50 -42 72 -90 94 -36 17 -70
19 -318 19 -228 0 -284 -3 -314 -15 -50 -21 -72 -42 -94 -90 -17 -36 -19 -70
-19 -320 0 -250 -2 -284 -19 -320 -22 -48 -44 -69 -94 -90 -32 -13 -172 -15
-1164 -15 -1073 0 -1130 1 -1168 19 -48 22 -69 44 -90 94 -13 31 -15 129 -15
737 0 608 -2 706 -15 737 -21 50 -42 72 -90 94 -36 17 -70 19 -320 19 -250 0
-284 2 -320 19 -48 22 -69 44 -90 94 -12 30 -15 87 -15 312 0 225 -3 282 -15
312 -21 50 -42 72 -90 94 -38 17 -82 19 -745 19 -663 0 -707 -2 -745 -19z
m6590 -3400 c48 -22 69 -44 90 -94 12 -30 15 -87 15 -312 0 -225 3 -282 15
-312 21 -50 42 -72 90 -94 36 -17 70 -19 320 -19 250 0 284 -2 320 -19 48 -22
69 -44 90 -94 22 -54 22 -570 0 -624 -21 -50 -42 -72 -90 -94 -38 -17 -82 -19
-743 -19 -610 0 -707 2 -739 15 -50 21 -72 42 -94 90 -17 36 -19 70 -19 318 0
227 -3 284 -15 314 -21 50 -42 72 -90 94 -36 17 -70 19 -320 19 -250 0 -284 2
-320 19 -48 22 -69 44 -90 94 -12 30 -15 87 -15 312 0 225 3 282 15 312 21 50
42 72 90 94 38 17 82 19 745 19 663 0 707 -2 745 -19z"/>
<path d="M2775 8611 c-48 -22 -69 -44 -90 -94 -13 -32 -15 -342 -15 -2864 0
-2723 1 -2829 19 -2868 22 -48 44 -69 94 -90 32 -13 342 -15 2864 -15 2723 0
2829 1 2868 19 48 22 69 44 90 94 13 32 15 342 15 2862 0 2520 -2 2830 -15
2862 -21 50 -42 72 -90 94 -39 18 -145 19 -2870 19 -2725 0 -2831 -1 -2870
-19z m4961 -865 l34 -34 0 -2057 0 -2057 -34 -34 -34 -34 -2057 0 -2057 0 -34
34 -34 34 0 2057 0 2057 34 34 34 34 2057 0 2057 0 34 -34z"/>
<path d="M4480 6914 c-45 -20 -68 -41 -91 -86 -18 -36 -19 -78 -19 -1170 0
-1078 1 -1135 19 -1173 22 -48 44 -69 94 -90 32 -13 172 -15 1164 -15 1073 0
1130 1 1168 19 48 22 69 44 90 94 13 32 15 172 15 1162 0 990 -2 1130 -15
1162 -21 50 -42 72 -90 94 -38 18 -94 19 -1170 18 -984 0 -1134 -2 -1165 -15z"/>
<path d="M12125 5211 c-48 -22 -69 -44 -90 -94 -13 -31 -15 -130 -15 -739 0
-661 -2 -705 -19 -743 -22 -48 -44 -69 -94 -90 -30 -12 -87 -15 -312 -15 -225
0 -282 -3 -312 -15 -50 -21 -72 -42 -94 -90 -17 -36 -19 -69 -19 -320 0 -251
2 -284 19 -320 22 -48 44 -69 94 -90 31 -13 129 -15 737 -15 608 0 706 2 737
15 50 21 72 42 94 90 18 38 19 95 19 1170 0 1075 -1 1132 -19 1170 -22 48 -44
69 -94 90 -30 12 -86 15 -314 15 -248 0 -282 -2 -318 -19z"/>
<path d="M24875 5211 c-48 -22 -69 -44 -90 -94 -12 -30 -15 -87 -15 -312 0
-225 3 -282 15 -312 21 -50 42 -72 90 -94 38 -17 82 -19 745 -19 663 0 707 2
745 19 48 22 69 44 90 94 22 54 22 570 0 624 -21 50 -42 72 -90 94 -38 17 -82
19 -745 19 -663 0 -707 -2 -745 -19z"/>
<path d="M26575 4361 c-48 -22 -69 -44 -90 -94 -12 -30 -15 -87 -15 -312 0
-225 3 -282 15 -312 21 -50 42 -72 90 -94 36 -17 70 -19 318 -19 228 0 284 3
314 15 50 21 72 42 94 90 17 36 19 69 19 320 0 251 -2 284 -19 320 -22 48 -44
69 -94 90 -30 12 -86 15 -314 15 -248 0 -282 -2 -318 -19z"/>
</g>
</svg>
